<?xml version="1.0" encoding="utf-8"?>
<!-- Generator: Adobe Illustrator 25.3.1, SVG Export Plug-In . SVG Version: 6.00 Build 0)  -->
<svg version="1.1" id="Layer_1" xmlns="http://www.w3.org/2000/svg" xmlns:xlink="http://www.w3.org/1999/xlink" x="0px" y="0px"
	 viewBox="0 0 1080 1920" style="enable-background:new 0 0 1080 1920;" xml:space="preserve">
<style type="text/css">
	.st0{fill:#FC0000;}
</style>
<circle class="st0" cx="265.66" cy="362.46" r="5"/>
<circle class="st0" cx="294.37" cy="362.46" r="5"/>
<circle class="st0" cx="312.25" cy="362.46" r="5"/>
<circle class="st0" cx="334.02" cy="362.46" r="5"/>
<circle class="st0" cx="362.26" cy="362.46" r="5"/>
<circle class="st0" cx="397.04" cy="362.46" r="5"/>
<circle class="st0" cx="601.5" cy="362.46" r="5"/>
<circle class="st0" cx="632.12" cy="362.46" r="5"/>
<circle class="st0" cx="659.86" cy="362.46" r="5"/>
<circle class="st0" cx="692.82" cy="362.46" r="5"/>
<circle class="st0" cx="722.95" cy="362.46" r="5"/>
<circle class="st0" cx="753" cy="362.46" r="5"/>
<circle class="st0" cx="786.06" cy="362.46" r="5"/>
<circle class="st0" cx="815.54" cy="362.46" r="5"/>
<circle class="st0" cx="623.58" cy="415.43" r="5"/>
<circle class="st0" cx="654.2" cy="415.43" r="5"/>
<circle class="st0" cx="681.94" cy="415.43" r="5"/>
<circle class="st0" cx="714.9" cy="415.43" r="5"/>
<circle class="st0" cx="745.03" cy="415.43" r="5"/>
<circle class="st0" cx="775.09" cy="415.43" r="5"/>
<circle class="st0" cx="808.14" cy="415.43" r="5"/>
<circle class="st0" cx="837.62" cy="415.43" r="5"/>
<circle class="st0" cx="645.66" cy="468.39" r="5"/>
<circle class="st0" cx="676.28" cy="468.39" r="5"/>
<circle class="st0" cx="704.02" cy="468.39" r="5"/>
<circle class="st0" cx="736.99" cy="468.39" r="5"/>
<circle class="st0" cx="767.11" cy="468.39" r="5"/>
<circle class="st0" cx="797.17" cy="468.39" r="5"/>
<circle class="st0" cx="830.22" cy="468.39" r="5"/>
<circle class="st0" cx="859.7" cy="468.39" r="5"/>
<circle class="st0" cx="667.75" cy="521.36" r="5"/>
<circle class="st0" cx="698.36" cy="521.36" r="5"/>
<circle class="st0" cx="726.1" cy="521.36" r="5"/>
<circle class="st0" cx="759.07" cy="521.36" r="5"/>
<circle class="st0" cx="789.19" cy="521.36" r="5"/>
<circle class="st0" cx="819.25" cy="521.36" r="5"/>
<circle class="st0" cx="852.31" cy="521.36" r="5"/>
<circle class="st0" cx="881.78" cy="521.36" r="5"/>
<circle class="st0" cx="689.83" cy="574.32" r="5"/>
<circle class="st0" cx="720.45" cy="574.32" r="5"/>
<circle class="st0" cx="748.19" cy="574.32" r="5"/>
<circle class="st0" cx="781.15" cy="574.32" r="5"/>
<circle class="st0" cx="811.28" cy="574.32" r="5"/>
<circle class="st0" cx="841.33" cy="574.32" r="5"/>
<circle class="st0" cx="874.39" cy="574.32" r="5"/>
<circle class="st0" cx="903.87" cy="574.32" r="5"/>
<circle class="st0" cx="711.91" cy="627.29" r="5"/>
<circle class="st0" cx="742.53" cy="627.29" r="5"/>
<circle class="st0" cx="770.27" cy="627.29" r="5"/>
<circle class="st0" cx="803.23" cy="627.29" r="5"/>
<circle class="st0" cx="833.36" cy="627.29" r="5"/>
<circle class="st0" cx="863.41" cy="627.29" r="5"/>
<circle class="st0" cx="896.47" cy="627.29" r="5"/>
<circle class="st0" cx="925.95" cy="627.29" r="5"/>
<circle class="st0" cx="733.99" cy="680.25" r="5"/>
<circle class="st0" cx="764.61" cy="680.25" r="5"/>
<circle class="st0" cx="792.35" cy="680.25" r="5"/>
<circle class="st0" cx="825.32" cy="680.25" r="5"/>
<circle class="st0" cx="855.44" cy="680.25" r="5"/>
<circle class="st0" cx="885.5" cy="680.25" r="5"/>
<circle class="st0" cx="918.55" cy="680.25" r="5"/>
<circle class="st0" cx="948.03" cy="680.25" r="5"/>
<circle class="st0" cx="756.07" cy="733.21" r="5"/>
<circle class="st0" cx="786.69" cy="733.21" r="5"/>
<circle class="st0" cx="814.43" cy="733.21" r="5"/>
<circle class="st0" cx="847.4" cy="733.21" r="5"/>
<circle class="st0" cx="877.52" cy="733.21" r="5"/>
<circle class="st0" cx="907.58" cy="733.21" r="5"/>
<circle class="st0" cx="940.64" cy="733.21" r="5"/>
<circle class="st0" cx="970.11" cy="733.21" r="5"/>
<circle class="st0" cx="778.16" cy="786.18" r="5"/>
<circle class="st0" cx="808.78" cy="786.18" r="5"/>
<circle class="st0" cx="836.51" cy="786.18" r="5"/>
<circle class="st0" cx="869.48" cy="786.18" r="5"/>
<circle class="st0" cx="899.6" cy="786.18" r="5"/>
<circle class="st0" cx="929.66" cy="786.18" r="5"/>
<circle class="st0" cx="962.72" cy="786.18" r="5"/>
<circle class="st0" cx="992.19" cy="786.18" r="5"/>
<circle class="st0" cx="800.24" cy="839.14" r="5"/>
<circle class="st0" cx="830.86" cy="839.14" r="5"/>
<circle class="st0" cx="858.6" cy="839.14" r="5"/>
<circle class="st0" cx="891.56" cy="839.14" r="5"/>
<circle class="st0" cx="921.69" cy="839.14" r="5"/>
<circle class="st0" cx="951.74" cy="839.14" r="5"/>
<circle class="st0" cx="984.8" cy="839.14" r="5"/>
<circle class="st0" cx="800.24" cy="891.66" r="5"/>
<circle class="st0" cx="830.86" cy="891.66" r="5"/>
<circle class="st0" cx="858.6" cy="891.66" r="5"/>
<circle class="st0" cx="891.56" cy="891.66" r="5"/>
<circle class="st0" cx="921.69" cy="891.66" r="5"/>
<circle class="st0" cx="951.74" cy="891.66" r="5"/>
<circle class="st0" cx="984.8" cy="891.66" r="5"/>
<circle class="st0" cx="778.19" cy="945.07" r="5"/>
<circle class="st0" cx="808.81" cy="945.07" r="5"/>
<circle class="st0" cx="836.55" cy="945.07" r="5"/>
<circle class="st0" cx="869.52" cy="945.07" r="5"/>
<circle class="st0" cx="899.64" cy="945.07" r="5"/>
<circle class="st0" cx="929.7" cy="945.07" r="5"/>
<circle class="st0" cx="962.75" cy="945.07" r="5"/>
<circle class="st0" cx="992.23" cy="945.07" r="5"/>
<circle class="st0" cx="756.14" cy="998.3" r="5"/>
<circle class="st0" cx="786.76" cy="998.3" r="5"/>
<circle class="st0" cx="814.5" cy="998.3" r="5"/>
<circle class="st0" cx="847.47" cy="998.3" r="5"/>
<circle class="st0" cx="877.59" cy="998.3" r="5"/>
<circle class="st0" cx="907.65" cy="998.3" r="5"/>
<circle class="st0" cx="940.71" cy="998.3" r="5"/>
<circle class="st0" cx="970.18" cy="998.3" r="5"/>
<circle class="st0" cx="734.1" cy="1051.53" r="5"/>
<circle class="st0" cx="764.72" cy="1051.53" r="5"/>
<circle class="st0" cx="792.46" cy="1051.53" r="5"/>
<circle class="st0" cx="825.42" cy="1051.53" r="5"/>
<circle class="st0" cx="855.55" cy="1051.53" r="5"/>
<circle class="st0" cx="885.6" cy="1051.53" r="5"/>
<circle class="st0" cx="918.66" cy="1051.53" r="5"/>
<circle class="st0" cx="948.14" cy="1051.53" r="5"/>
<circle class="st0" cx="712.05" cy="1104.76" r="5"/>
<circle class="st0" cx="742.67" cy="1104.76" r="5"/>
<circle class="st0" cx="770.41" cy="1104.76" r="5"/>
<circle class="st0" cx="803.37" cy="1104.76" r="5"/>
<circle class="st0" cx="833.5" cy="1104.76" r="5"/>
<circle class="st0" cx="863.55" cy="1104.76" r="5"/>
<circle class="st0" cx="896.61" cy="1104.76" r="5"/>
<circle class="st0" cx="926.09" cy="1104.76" r="5"/>
<circle class="st0" cx="690" cy="1157.99" r="5"/>
<circle class="st0" cx="720.62" cy="1157.99" r="5"/>
<circle class="st0" cx="748.36" cy="1157.99" r="5"/>
<circle class="st0" cx="781.33" cy="1157.99" r="5"/>
<circle class="st0" cx="811.45" cy="1157.99" r="5"/>
<circle class="st0" cx="841.51" cy="1157.99" r="5"/>
<circle class="st0" cx="874.56" cy="1157.99" r="5"/>
<circle class="st0" cx="904.04" cy="1157.99" r="5"/>
<circle class="st0" cx="667.96" cy="1211.21" r="5"/>
<circle class="st0" cx="698.57" cy="1211.21" r="5"/>
<circle class="st0" cx="726.31" cy="1211.21" r="5"/>
<circle class="st0" cx="759.28" cy="1211.21" r="5"/>
<circle class="st0" cx="789.4" cy="1211.21" r="5"/>
<circle class="st0" cx="819.46" cy="1211.21" r="5"/>
<circle class="st0" cx="852.52" cy="1211.21" r="5"/>
<circle class="st0" cx="881.99" cy="1211.21" r="5"/>
<circle class="st0" cx="645.91" cy="1264.44" r="5"/>
<circle class="st0" cx="676.53" cy="1264.44" r="5"/>
<circle class="st0" cx="704.27" cy="1264.44" r="5"/>
<circle class="st0" cx="737.23" cy="1264.44" r="5"/>
<circle class="st0" cx="767.36" cy="1264.44" r="5"/>
<circle class="st0" cx="797.41" cy="1264.44" r="5"/>
<circle class="st0" cx="830.47" cy="1264.44" r="5"/>
<circle class="st0" cx="859.95" cy="1264.44" r="5"/>
<circle class="st0" cx="623.86" cy="1317.67" r="5"/>
<circle class="st0" cx="654.48" cy="1317.67" r="5"/>
<circle class="st0" cx="682.22" cy="1317.67" r="5"/>
<circle class="st0" cx="715.19" cy="1317.67" r="5"/>
<circle class="st0" cx="745.31" cy="1317.67" r="5"/>
<circle class="st0" cx="775.37" cy="1317.67" r="5"/>
<circle class="st0" cx="808.42" cy="1317.67" r="5"/>
<circle class="st0" cx="837.9" cy="1317.67" r="5"/>
<circle class="st0" cx="601.81" cy="1370.9" r="5"/>
<circle class="st0" cx="632.43" cy="1370.9" r="5"/>
<circle class="st0" cx="660.17" cy="1370.9" r="5"/>
<circle class="st0" cx="693.14" cy="1370.9" r="5"/>
<circle class="st0" cx="723.26" cy="1370.9" r="5"/>
<circle class="st0" cx="753.32" cy="1370.9" r="5"/>
<circle class="st0" cx="786.38" cy="1370.9" r="5"/>
<circle class="st0" cx="815.85" cy="1370.9" r="5"/>
<circle class="st0" cx="244.21" cy="415.42" r="5"/>
<circle class="st0" cx="272.92" cy="415.42" r="5"/>
<circle class="st0" cx="290.79" cy="415.42" r="5"/>
<circle class="st0" cx="312.56" cy="415.42" r="5"/>
<circle class="st0" cx="340.81" cy="415.42" r="5"/>
<circle class="st0" cx="375.59" cy="415.42" r="5"/>
<circle class="st0" cx="222.75" cy="468.37" r="5"/>
<circle class="st0" cx="251.46" cy="468.37" r="5"/>
<circle class="st0" cx="269.34" cy="468.37" r="5"/>
<circle class="st0" cx="291.11" cy="468.37" r="5"/>
<circle class="st0" cx="319.36" cy="468.37" r="5"/>
<circle class="st0" cx="354.13" cy="468.37" r="5"/>
<circle class="st0" cx="201.3" cy="521.32" r="5"/>
<circle class="st0" cx="230.01" cy="521.32" r="5"/>
<circle class="st0" cx="247.89" cy="521.32" r="5"/>
<circle class="st0" cx="269.66" cy="521.32" r="5"/>
<circle class="st0" cx="297.9" cy="521.32" r="5"/>
<circle class="st0" cx="332.68" cy="521.32" r="5"/>
<circle class="st0" cx="179.85" cy="574.27" r="5"/>
<circle class="st0" cx="208.55" cy="574.27" r="5"/>
<circle class="st0" cx="226.43" cy="574.27" r="5"/>
<circle class="st0" cx="248.2" cy="574.27" r="5"/>
<circle class="st0" cx="276.45" cy="574.27" r="5"/>
<circle class="st0" cx="311.23" cy="574.27" r="5"/>
<circle class="st0" cx="158.39" cy="627.22" r="5"/>
<circle class="st0" cx="187.1" cy="627.22" r="5"/>
<circle class="st0" cx="204.98" cy="627.22" r="5"/>
<circle class="st0" cx="226.75" cy="627.22" r="5"/>
<circle class="st0" cx="255" cy="627.22" r="5"/>
<circle class="st0" cx="289.77" cy="627.22" r="5"/>
<circle class="st0" cx="136.94" cy="680.18" r="5"/>
<circle class="st0" cx="165.65" cy="680.18" r="5"/>
<circle class="st0" cx="183.53" cy="680.18" r="5"/>
<circle class="st0" cx="205.3" cy="680.18" r="5"/>
<circle class="st0" cx="233.54" cy="680.18" r="5"/>
<circle class="st0" cx="268.32" cy="680.18" r="5"/>
<circle class="st0" cx="115.48" cy="733.13" r="5"/>
<circle class="st0" cx="144.19" cy="733.13" r="5"/>
<circle class="st0" cx="162.07" cy="733.13" r="5"/>
<circle class="st0" cx="183.84" cy="733.13" r="5"/>
<circle class="st0" cx="212.09" cy="733.13" r="5"/>
<circle class="st0" cx="246.86" cy="733.13" r="5"/>
<circle class="st0" cx="94.03" cy="786.08" r="5"/>
<circle class="st0" cx="122.74" cy="786.08" r="5"/>
<circle class="st0" cx="140.62" cy="786.08" r="5"/>
<circle class="st0" cx="162.39" cy="786.08" r="5"/>
<circle class="st0" cx="190.63" cy="786.08" r="5"/>
<circle class="st0" cx="225.41" cy="786.08" r="5"/>
<circle class="st0" cx="72.58" cy="839.03" r="5"/>
<circle class="st0" cx="101.29" cy="839.03" r="5"/>
<circle class="st0" cx="119.16" cy="839.03" r="5"/>
<circle class="st0" cx="140.94" cy="839.03" r="5"/>
<circle class="st0" cx="169.18" cy="839.03" r="5"/>
<circle class="st0" cx="203.96" cy="839.03" r="5"/>
<circle class="st0" cx="72.58" cy="892" r="5"/>
<circle class="st0" cx="101.29" cy="892" r="5"/>
<circle class="st0" cx="119.16" cy="892" r="5"/>
<circle class="st0" cx="140.94" cy="892" r="5"/>
<circle class="st0" cx="169.18" cy="892" r="5"/>
<circle class="st0" cx="203.96" cy="892" r="5"/>
<circle class="st0" cx="94.7" cy="945.03" r="5"/>
<circle class="st0" cx="123.41" cy="945.03" r="5"/>
<circle class="st0" cx="141.29" cy="945.03" r="5"/>
<circle class="st0" cx="163.06" cy="945.03" r="5"/>
<circle class="st0" cx="191.31" cy="945.03" r="5"/>
<circle class="st0" cx="226.08" cy="945.03" r="5"/>
<circle class="st0" cx="116.83" cy="998.07" r="5"/>
<circle class="st0" cx="145.54" cy="998.07" r="5"/>
<circle class="st0" cx="163.42" cy="998.07" r="5"/>
<circle class="st0" cx="185.19" cy="998.07" r="5"/>
<circle class="st0" cx="213.44" cy="998.07" r="5"/>
<circle class="st0" cx="248.21" cy="998.07" r="5"/>
<circle class="st0" cx="138.96" cy="1051.1" r="5"/>
<circle class="st0" cx="167.67" cy="1051.1" r="5"/>
<circle class="st0" cx="185.55" cy="1051.1" r="5"/>
<circle class="st0" cx="207.32" cy="1051.1" r="5"/>
<circle class="st0" cx="235.56" cy="1051.1" r="5"/>
<circle class="st0" cx="270.34" cy="1051.1" r="5"/>
<circle class="st0" cx="161.09" cy="1104.14" r="5"/>
<circle class="st0" cx="189.8" cy="1104.14" r="5"/>
<circle class="st0" cx="207.67" cy="1104.14" r="5"/>
<circle class="st0" cx="229.45" cy="1104.14" r="5"/>
<circle class="st0" cx="257.69" cy="1104.14" r="5"/>
<circle class="st0" cx="292.47" cy="1104.14" r="5"/>
<circle class="st0" cx="183.21" cy="1157.17" r="5"/>
<circle class="st0" cx="211.92" cy="1157.17" r="5"/>
<circle class="st0" cx="229.8" cy="1157.17" r="5"/>
<circle class="st0" cx="251.57" cy="1157.17" r="5"/>
<circle class="st0" cx="279.82" cy="1157.17" r="5"/>
<circle class="st0" cx="314.59" cy="1157.17" r="5"/>
<circle class="st0" cx="205.34" cy="1210.2" r="5"/>
<circle class="st0" cx="234.05" cy="1210.2" r="5"/>
<circle class="st0" cx="251.93" cy="1210.2" r="5"/>
<circle class="st0" cx="273.7" cy="1210.2" r="5"/>
<circle class="st0" cx="301.95" cy="1210.2" r="5"/>
<circle class="st0" cx="336.72" cy="1210.2" r="5"/>
<circle class="st0" cx="227.47" cy="1263.24" r="5"/>
<circle class="st0" cx="256.18" cy="1263.24" r="5"/>
<circle class="st0" cx="274.06" cy="1263.24" r="5"/>
<circle class="st0" cx="295.83" cy="1263.24" r="5"/>
<circle class="st0" cx="324.07" cy="1263.24" r="5"/>
<circle class="st0" cx="358.85" cy="1263.24" r="5"/>
<circle class="st0" cx="249.6" cy="1316.27" r="5"/>
<circle class="st0" cx="278.31" cy="1316.27" r="5"/>
<circle class="st0" cx="296.18" cy="1316.27" r="5"/>
<circle class="st0" cx="317.95" cy="1316.27" r="5"/>
<circle class="st0" cx="346.2" cy="1316.27" r="5"/>
<circle class="st0" cx="380.98" cy="1316.27" r="5"/>
<circle class="st0" cx="271.72" cy="1369.31" r="5"/>
<circle class="st0" cx="300.43" cy="1369.31" r="5"/>
<circle class="st0" cx="318.31" cy="1369.31" r="5"/>
<circle class="st0" cx="340.08" cy="1369.31" r="5"/>
<circle class="st0" cx="368.33" cy="1369.31" r="5"/>
<circle class="st0" cx="403.1" cy="1369.31" r="5"/>
</svg>
